# xmcd
#
# Track frame offsets:
#	150
#	14078
#	29390
#	49850
#	68422
#	87719
#	101538
#	117643
#	133156
#	150010
#	169446
#	187512
#	203707
#
# Disc length: 2897 seconds
#
# Revision: 1
# Processed by: cddbd v1.5.2PL0 Copyright (c) Steve Scherf et al.
# Submitted via: audiograbber 1.83.01
#
DISCID=ab0b4f0d
DTITLE=Sunny Sweeney - Provoked
DYEAR=2014
DGENRE=Country
TTITLE0=You Don't Know Your Husband
TTITLE1=Bad Girl Phase
TTITLE2=Second Guessing
TTITLE3=Carolina on the Line
TTITLE4=Find Me
TTITLE5=Can't Let Go
TTITLE6=Front Row Seats
TTITLE7=My Bed (feat. Will Hoge)
TTITLE8=Uninvited
TTITLE9=Sunday Dress
TTITLE10=Used Cars
TTITLE11=Backhanded Compliment
TTITLE12=Everybody Else Can Kiss My Ass
EXTD=
EXTT0=
EXTT1=
EXTT2=
EXTT3=
EXTT4=
EXTT5=
EXTT6=
EXTT7=
EXTT8=
EXTT9=
EXTT10=
EXTT11=
EXTT12=
PLAYORDER=
